Coordinates
nRows=10
nColumns=38

# SIMM Motion File Header:
name Coordinates
datacolumns 38
datarows 10
otherdata 1
range 1.61549999999999990000 1.62449999999999980000

Units are S.I. units (second, meters, Newtons, ...)
Angles are in degrees.

endheader
time	pelvis_tilt	pelvis_list	pelvis_rotation	pelvis_tx	pelvis_ty	pelvis_tz	hip_flexion_r	hip_adduction_r	hip_rotation_r	knee_angle_r	ankle_angle_r	subtalar_angle_r	mtp_angle_r	hip_flexion_l	hip_adduction_l	hip_rotation_l	knee_angle_l	ankle_angle_l	subtalar_angle_l	mtp_angle_l	lumbar_extension	lumbar_bending	lumbar_rotation	arm_flex_r	arm_add_r	arm_rot_r	elbow_flex_r	pro_sup_r	wrist_flex_r	wrist_dev_r	arm_flex_l	arm_add_l	arm_rot_l	elbow_flex_l	pro_sup_l	wrist_flex_l	wrist_dev_l
      1.61549999999999990000	      1.20996626493815950000	     -3.24249027574409430000	     -0.10664923750944244000	      1.22952202019068820000	      1.02587185510208980000	     -0.31754627813203251000	     14.78066472564731800000	      7.99511224861434220000	      4.04581593926278060000	     -7.48707552306790620000	      8.70478982614554300000	      0.00000000000000000000	      0.00000000000000000000	    -19.75231487328007800000	      5.34643935103664790000	     15.46242754600514700000	    -27.78706480591736000000	    -12.41525549142816100000	      0.00000000000000000000	      0.00000000000000000000	    -12.61876379016082200000	      6.34978469279348180000	     -6.92795724971833150000	    -51.05202770597527700000	    -15.45250916426796200000	     -8.91076189560838650000	    141.66235490941725000000	     99.52821158007712700000	      0.00000000000000000000	      0.00000000000000000000	    -17.18368748711029100000	    -18.65414585552916200000	     11.62171140592157300000	    134.64416980166411000000	     92.45542958559758500000	      0.00000000000000000000	      0.00000000000000000000
      1.61649999999999980000	      1.26239468857715220000	     -3.22044796087849330000	     -0.12718753764878721000	      1.22966347776862750000	      1.02546787114685630000	     -0.31750493105903510000	     14.73633601350759800000	      7.99749158975053300000	      4.08294461964873980000	     -7.64725554530109180000	      8.69877837937602650000	      0.00000000000000000512	     -0.00000000000000000960	    -19.69547315254071400000	      5.38905854259411400000	     15.35740259546818200000	    -28.17031217240497300000	    -12.27600301111361200000	     -0.00000000000000000046	      0.00000000000000000176	    -12.66707646357628600000	      6.31701814943140060000	     -6.88934089178125930000	    -50.88116564172018700000	    -15.48302045517044900000	     -8.85261333126396720000	    141.58707412925656000000	     99.49207006158337700000	     -0.00000000000000000021	      0.00000000000000000084	    -17.31136135003273000000	    -18.61852063597856200000	     11.55444483028882800000	    134.53151329798291000000	     92.46748917411522900000	      0.00000000000000000004	     -0.00000000000000000062
      1.61749999999999990000	      1.31500111883195590000	     -3.19852301150333050000	     -0.14708981408399183000	      1.22980176990834390000	      1.02505550482260510000	     -0.31746489584646553000	     14.69415620193616300000	      7.99947916993024060000	      4.11714147325580630000	     -7.81633836457394170000	      8.68631248368058100000	      0.00000000000000001362	     -0.00000000000000001654	    -19.63666387469178400000	      5.43023440144175670000	     15.24763706094270800000	    -28.55633034616494500000	    -12.13535084206239400000	     -0.00000000000000000014	      0.00000000000000000555	    -12.71579609602192600000	      6.28452587139825790000	     -6.85085856501725750000	    -50.70854351035917100000	    -15.51338287245691200000	     -8.79374903375251900000	    141.51003303452288000000	     99.45514813030732200000	     -0.00000000000000000037	      0.00000000000000000241	    -17.43838553559444900000	    -18.58162818000345200000	     11.48609778734139500000	    134.41663195541949000000	     92.48064001852957000000	      0.00000000000000000040	     -0.00000000000000000230
      1.61849999999999980000	      1.36786275298087960000	     -3.17675161046564900000	     -0.16632038648506109000	      1.22993683314973560000	      1.02463492806551140000	     -0.31742621205975591000	     14.65407080938869900000	      8.00112010514691720000	      4.14837628003459270000	     -7.99420802461268740000	      8.66767289610667820000	      0.00000000000000002203	     -0.00000000000000002383	    -19.57597476267728700000	      5.46986692444074670000	     15.13321224885805400000	    -28.94501878529009900000	    -11.99349317320708000000	      0.00000000000000000132	      0.00000000000000000971	    -12.76499912635675700000	      6.25236510814241430000	     -6.81250398234363440000	    -50.53419932519222600000	    -15.54357876194098700000	     -8.73421300346079830000	    141.43126420591517000000	     99.41752510963087300000	     -0.00000000000000000024	      0.00000000000000000363	    -17.56474545645744500000	    -18.54347599049943100000	     11.41669777170174700000	    134.29955311919392000000	     92.49488205962140300000	      0.00000000000000000031	     -0.00000000000000000503
      1.61949999999999990000	      1.42139662997838470000	     -3.15518529596342080000	     -0.18481035796757420000	      1.23006865861329300000	      1.02420688459863920000	     -0.31738895851387622000	     14.61560356325050600000	      8.00246462065736350000	      4.17650766136175380000	     -8.18060450159759610000	      8.64287157196546830000	      0.00000000000000003093	     -0.00000000000000003525	    -19.51390944496673500000	      5.50782219756894960000	     15.01424348027225400000	    -29.33613407920155300000	    -11.85074633897940200000	      0.00000000000000000339	      0.00000000000000001362	    -12.81514174716064100000	      6.22061137758075230000	     -6.77426779569137420000	    -50.35814308362422100000	    -15.57358209587772000000	     -8.67406140568294680000	    141.35084339256321000000	     99.37928700787480800000	      0.00000000000000000009	      0.00000000000000000475	    -17.69036798034999700000	    -18.50409554088859200000	     11.34627654035189400000	    134.18034372124950000000	     92.51018321499077500000	      0.00000000000000000014	     -0.00000000000000000648
      1.62049999999999980000	      1.47589161011482690000	     -3.13386544207182330000	     -0.20246424050564471000	      1.23019721316202670000	      1.02377190081375540000	     -0.31735325540865011000	     14.57843634572981300000	      8.00354820967965350000	      4.20139255052226710000	     -8.37529819489046190000	      8.61224860822644620000	      0.00000000000000003878	     -0.00000000000000004620	    -19.45080416117851400000	      5.54397488611937380000	     14.89088538825828500000	    -29.72950141454727900000	    -11.70737388878718700000	      0.00000000000000000558	      0.00000000000000001767	    -12.86652966506316200000	      6.18933602573152440000	     -6.73618182310988180000	    -50.18039930632354400000	    -15.60336429850235600000	     -8.61334596657596310000	    141.26883114854502000000	     99.34052225737572400000	      0.00000000000000000005	      0.00000000000000000755	    -17.81520978504368500000	    -18.46351385188383500000	     11.27486341778956500000	    134.05906361925886000000	     92.52651862333741000000	     -0.00000000000000000019	     -0.00000000000000000731
      1.62149999999999990000	      1.53149899160530060000	     -3.11283246762469770000	     -0.21908756523058251000	      1.23032242951129670000	      1.02333028309588330000	     -0.31731937771109137000	     14.54241018169638400000	      8.00437750937880920000	      4.22278627408827310000	     -8.57807042349985770000	      8.57612659539826620000	      0.00000000000000004687	     -0.00000000000000005704	    -19.38680315015204800000	      5.57817892605970830000	     14.76339158123982100000	    -30.12505360196643200000	    -11.56356985001957800000	      0.00000000000000000828	      0.00000000000000002157	    -12.91930464308096500000	      6.15862996966277090000	     -6.69838822941326750000	    -50.00100275244845000000	    -15.63289151503396100000	     -8.55211107113769310000	    141.18526703564862000000	     99.30132312859125000000	     -0.00000000000000000013	      0.00000000000000001113	    -17.93925063351277400000	    -18.42175597932449100000	     11.20248389940910400000	    133.93575869204520000000	     92.54387091707327800000	     -0.00000000000000000024	     -0.00000000000000000786
      1.62249999999999980000	      1.58820565314282460000	     -3.09211620712738090000	     -0.23460429194383195000	      1.23044419833692410000	      1.02288206831858020000	     -0.31728741769328250000	     14.50759199913761300000	      8.00497912165755030000	      4.24054122533062560000	     -8.78880970065187840000	      8.53472846045631960000	      0.00000000000000005614	     -0.00000000000000006741	    -19.32186914987148200000	      5.61033876159603830000	     14.63192267534160100000	    -30.52275289687479900000	    -11.41949580689772900000	      0.00000000000000001248	      0.00000000000000002376	    -12.97343919116356200000	      6.12855224715182350000	     -6.66093007911701560000	    -49.82000882028468400000	    -15.66213366857353300000	     -8.49040377443540170000	    141.10017889939809000000	     99.26177966017671400000	     -0.00000000000000000030	      0.00000000000000001530	    -18.06249185002457800000	    -18.37883551897916600000	     11.12916231549668900000	    133.81045757449462000000	     92.56223544396817700000	      0.00000000000000000064	     -0.00000000000000000695
      1.62349999999999990000	      1.64586804316239640000	     -3.07174562396231200000	     -0.24901618178174395000	      1.23056237960684610000	      1.02242707901471720000	     -0.31725734493384949000	     14.47422207550803500000	      8.00539972301420380000	      4.25458063837390380000	     -9.00748317335438390000	      8.48828660432637250000	      0.00000000000000006408	     -0.00000000000000007361	    -19.25581977737124000000	      5.64038672598836840000	     14.49657734652711800000	    -30.92259495698634800000	    -11.27527823133274700000	      0.00000000000000001847	      0.00000000000000002420	    -13.02877207434279500000	      6.09914690249597680000	     -6.62378608459586720000	    -49.63748901599311100000	    -15.69106372759539500000	     -8.42827359078805220000	    141.01358572507678000000	     99.22197911420276700000	     -0.00000000000000000054	      0.00000000000000001856	    -18.18494769427513100000	    -18.33475786633465900000	     11.05492114443798200000	    133.68317317899658000000	     92.58161714617182300000	      0.00000000000000000171	     -0.00000000000000000617
      1.62449999999999980000	      1.70424448438798650000	     -3.05175715739387860000	     -0.26238561926882931000	      1.23067681108500700000	      1.02196497839558840000	     -0.31722903141046538000	     14.44266889578914200000	      8.00571029236807870000	      4.26488438178499510000	     -9.23411851491995070000	      8.43704071341324100000	      0.00000000000000007521	     -0.00000000000000008100	    -19.18836571269189800000	      5.66826870069805630000	     14.35740328939536600000	    -31.32460326001480800000	    -11.13101117713416800000	      0.00000000000000002458	      0.00000000000000002440	    -13.08504423851935300000	      6.07045438046126760000	     -6.58688270671074430000	    -49.45352684466756400000	    -15.71965803782931400000	     -8.36577325000261670000	    140.92550088190333000000	     99.18200479857115700000	     -0.00000000000000000097	      0.00000000000000002170	    -18.30663748876732900000	    -18.28952193375666400000	     10.97978100029514400000	    133.55390402429364000000	     92.60202804300084300000	      0.00000000000000000288	     -0.00000000000000000603
